<mxfile host="www.draw.io" modified="2020-01-17T03:30:02.426Z" agent="Mozilla/5.0 (X11; Ubuntu; Linux x86_64; rv:72.0) Gecko/20100101 Firefox/72.0" etag="ybm-kL40n0vX7N4-gN7l" version="12.5.5" type="github">
  <diagram id="yOcUvAX4AMtCbKXdmSLz" name="Page-1">
    <mxGraphModel dx="1057" dy="315" grid="1" gridSize="10" guides="1" tooltips="1" connect="1" arrows="1" fold="1" page="1" pageScale="1" pageWidth="850" pageHeight="1100" math="0" shadow="0">
      <root>
        <mxCell id="0"/>
        <mxCell id="1" parent="0"/>
        <mxCell id="8zST_xIl3tLdwm4q-xXR-1" value="WEBSITE" style="rounded=0;whiteSpace=wrap;html=1;" parent="1" vertex="1">
          <mxGeometry x="20" y="20" width="80" height="20" as="geometry"/>
        </mxCell>
        <mxCell id="8zST_xIl3tLdwm4q-xXR-4" value="" style="line;strokeWidth=2;html=1;" parent="1" vertex="1">
          <mxGeometry x="100" y="25" width="30" height="10" as="geometry"/>
        </mxCell>
        <mxCell id="8zST_xIl3tLdwm4q-xXR-5" value="http://www.honolulucrimestoppers.org/sitemenu.aspx?P=missing&amp;amp;ID=606&amp;amp;PageNum=1" style="rounded=0;whiteSpace=wrap;html=1;" parent="1" vertex="1">
          <mxGeometry x="130" y="10" width="240" height="40" as="geometry"/>
        </mxCell>
        <mxCell id="8zST_xIl3tLdwm4q-xXR-6" value="" style="line;strokeWidth=2;html=1;" parent="1" vertex="1">
          <mxGeometry x="340" y="25" width="40" height="10" as="geometry"/>
        </mxCell>
        <mxCell id="8zST_xIl3tLdwm4q-xXR-7" value="&lt;div&gt;Get Real Name&lt;/div&gt;&lt;div&gt;Thomas Borel&lt;br&gt;&lt;/div&gt;" style="rounded=0;whiteSpace=wrap;html=1;" parent="1" vertex="1">
          <mxGeometry x="380" y="10" width="110" height="40" as="geometry"/>
        </mxCell>
        <mxCell id="8zST_xIl3tLdwm4q-xXR-8" value="" style="line;strokeWidth=2;html=1;" parent="1" vertex="1">
          <mxGeometry x="490" y="25" width="40" height="10" as="geometry"/>
        </mxCell>
        <mxCell id="8zST_xIl3tLdwm4q-xXR-25" style="edgeStyle=orthogonalEdgeStyle;rounded=0;orthogonalLoop=1;jettySize=auto;html=1;entryX=0.5;entryY=0;entryDx=0;entryDy=0;" parent="1" source="8zST_xIl3tLdwm4q-xXR-9" target="8zST_xIl3tLdwm4q-xXR-12" edge="1">
          <mxGeometry relative="1" as="geometry"/>
        </mxCell>
        <mxCell id="8zST_xIl3tLdwm4q-xXR-9" value="search engine" style="rounded=0;whiteSpace=wrap;html=1;" parent="1" vertex="1">
          <mxGeometry x="120" y="90" width="120" height="30" as="geometry"/>
        </mxCell>
        <mxCell id="8zST_xIl3tLdwm4q-xXR-10" value="" style="endArrow=none;html=1;entryX=0.164;entryY=1.05;entryDx=0;entryDy=0;entryPerimeter=0;exitX=1;exitY=0.5;exitDx=0;exitDy=0;" parent="1" source="8zST_xIl3tLdwm4q-xXR-9" target="8zST_xIl3tLdwm4q-xXR-7" edge="1">
          <mxGeometry width="50" height="50" relative="1" as="geometry">
            <mxPoint x="310" y="120" as="sourcePoint"/>
            <mxPoint x="360" y="70" as="targetPoint"/>
            <Array as="points">
              <mxPoint x="370" y="100"/>
            </Array>
          </mxGeometry>
        </mxCell>
        <mxCell id="8zST_xIl3tLdwm4q-xXR-12" value="google.com" style="rounded=0;whiteSpace=wrap;html=1;" parent="1" vertex="1">
          <mxGeometry x="10" y="150" width="90" height="20" as="geometry"/>
        </mxCell>
        <mxCell id="8zST_xIl3tLdwm4q-xXR-13" value="social searcher" style="rounded=0;whiteSpace=wrap;html=1;" parent="1" vertex="1">
          <mxGeometry x="110" y="210" width="100" height="20" as="geometry"/>
        </mxCell>
        <mxCell id="8zST_xIl3tLdwm4q-xXR-14" value="dogpile.com" style="rounded=0;whiteSpace=wrap;html=1;" parent="1" vertex="1">
          <mxGeometry x="110" y="230" width="100" height="20" as="geometry"/>
        </mxCell>
        <mxCell id="8zST_xIl3tLdwm4q-xXR-28" style="edgeStyle=orthogonalEdgeStyle;rounded=0;orthogonalLoop=1;jettySize=auto;html=1;exitX=1;exitY=0.5;exitDx=0;exitDy=0;entryX=0;entryY=0.75;entryDx=0;entryDy=0;" parent="1" source="8zST_xIl3tLdwm4q-xXR-15" target="8zST_xIl3tLdwm4q-xXR-18" edge="1">
          <mxGeometry relative="1" as="geometry"/>
        </mxCell>
        <mxCell id="8zST_xIl3tLdwm4q-xXR-15" value="bing" style="rounded=0;whiteSpace=wrap;html=1;" parent="1" vertex="1">
          <mxGeometry x="10" y="170" width="90" height="20" as="geometry"/>
        </mxCell>
        <mxCell id="8zST_xIl3tLdwm4q-xXR-78" style="edgeStyle=orthogonalEdgeStyle;rounded=0;orthogonalLoop=1;jettySize=auto;html=1;exitX=0.5;exitY=1;exitDx=0;exitDy=0;entryX=0.5;entryY=0;entryDx=0;entryDy=0;" parent="1" source="8zST_xIl3tLdwm4q-xXR-16" target="8zST_xIl3tLdwm4q-xXR-75" edge="1">
          <mxGeometry relative="1" as="geometry"/>
        </mxCell>
        <mxCell id="8zST_xIl3tLdwm4q-xXR-16" value="yahoo" style="rounded=0;whiteSpace=wrap;html=1;" parent="1" vertex="1">
          <mxGeometry x="10" y="190" width="90" height="20" as="geometry"/>
        </mxCell>
        <mxCell id="8zST_xIl3tLdwm4q-xXR-17" value="duckduckgo" style="rounded=0;whiteSpace=wrap;html=1;" parent="1" vertex="1">
          <mxGeometry x="110" y="250" width="100" height="20" as="geometry"/>
        </mxCell>
        <mxCell id="8zST_xIl3tLdwm4q-xXR-29" style="edgeStyle=orthogonalEdgeStyle;rounded=0;orthogonalLoop=1;jettySize=auto;html=1;exitX=0.5;exitY=1;exitDx=0;exitDy=0;entryX=0.667;entryY=0;entryDx=0;entryDy=0;entryPerimeter=0;" parent="1" source="8zST_xIl3tLdwm4q-xXR-18" target="8zST_xIl3tLdwm4q-xXR-13" edge="1">
          <mxGeometry relative="1" as="geometry"/>
        </mxCell>
        <mxCell id="8zST_xIl3tLdwm4q-xXR-18" value="Advanced search" style="rounded=0;whiteSpace=wrap;html=1;" parent="1" vertex="1">
          <mxGeometry x="130" y="160" width="90" height="30" as="geometry"/>
        </mxCell>
        <mxCell id="8zST_xIl3tLdwm4q-xXR-70" style="edgeStyle=orthogonalEdgeStyle;rounded=0;orthogonalLoop=1;jettySize=auto;html=1;exitX=1;exitY=0.5;exitDx=0;exitDy=0;entryX=1;entryY=0.75;entryDx=0;entryDy=0;" parent="1" source="8zST_xIl3tLdwm4q-xXR-30" target="8zST_xIl3tLdwm4q-xXR-69" edge="1">
          <mxGeometry relative="1" as="geometry"/>
        </mxCell>
        <mxCell id="8zST_xIl3tLdwm4q-xXR-30" value="Social media" style="rounded=0;whiteSpace=wrap;html=1;" parent="1" vertex="1">
          <mxGeometry x="530" y="15" width="120" height="30" as="geometry"/>
        </mxCell>
        <mxCell id="8zST_xIl3tLdwm4q-xXR-36" style="edgeStyle=orthogonalEdgeStyle;rounded=0;orthogonalLoop=1;jettySize=auto;html=1;exitX=0.5;exitY=0;exitDx=0;exitDy=0;" parent="1" source="8zST_xIl3tLdwm4q-xXR-31" edge="1">
          <mxGeometry relative="1" as="geometry">
            <mxPoint x="580" y="50" as="targetPoint"/>
          </mxGeometry>
        </mxCell>
        <mxCell id="8zST_xIl3tLdwm4q-xXR-37" style="edgeStyle=orthogonalEdgeStyle;rounded=0;orthogonalLoop=1;jettySize=auto;html=1;exitX=1;exitY=0.5;exitDx=0;exitDy=0;entryX=0;entryY=0.75;entryDx=0;entryDy=0;" parent="1" source="8zST_xIl3tLdwm4q-xXR-31" target="8zST_xIl3tLdwm4q-xXR-33" edge="1">
          <mxGeometry relative="1" as="geometry"/>
        </mxCell>
        <mxCell id="8zST_xIl3tLdwm4q-xXR-31" value="Facebook" style="rounded=0;whiteSpace=wrap;html=1;" parent="1" vertex="1">
          <mxGeometry x="400" y="70" width="100" height="20" as="geometry"/>
        </mxCell>
        <mxCell id="8zST_xIl3tLdwm4q-xXR-68" style="edgeStyle=orthogonalEdgeStyle;rounded=0;orthogonalLoop=1;jettySize=auto;html=1;exitX=0.5;exitY=1;exitDx=0;exitDy=0;entryX=0.377;entryY=-0.067;entryDx=0;entryDy=0;entryPerimeter=0;" parent="1" source="8zST_xIl3tLdwm4q-xXR-32" target="8zST_xIl3tLdwm4q-xXR-67" edge="1">
          <mxGeometry relative="1" as="geometry"/>
        </mxCell>
        <mxCell id="8zST_xIl3tLdwm4q-xXR-32" value="Linkedin" style="rounded=0;whiteSpace=wrap;html=1;" parent="1" vertex="1">
          <mxGeometry x="400" y="130" width="100" height="20" as="geometry"/>
        </mxCell>
        <mxCell id="8zST_xIl3tLdwm4q-xXR-40" style="edgeStyle=orthogonalEdgeStyle;rounded=0;orthogonalLoop=1;jettySize=auto;html=1;exitX=0.5;exitY=1;exitDx=0;exitDy=0;entryX=0.5;entryY=0;entryDx=0;entryDy=0;" parent="1" source="8zST_xIl3tLdwm4q-xXR-33" target="8zST_xIl3tLdwm4q-xXR-39" edge="1">
          <mxGeometry relative="1" as="geometry"/>
        </mxCell>
        <mxCell id="8zST_xIl3tLdwm4q-xXR-33" value="&lt;div&gt;Get facebook url of the&lt;/div&gt;&lt;div&gt;person you are searching&lt;br&gt;&lt;/div&gt;" style="rounded=0;whiteSpace=wrap;html=1;" parent="1" vertex="1">
          <mxGeometry x="560" y="75" width="160" height="35" as="geometry"/>
        </mxCell>
        <mxCell id="8zST_xIl3tLdwm4q-xXR-58" style="edgeStyle=orthogonalEdgeStyle;rounded=0;orthogonalLoop=1;jettySize=auto;html=1;exitX=0;exitY=0.25;exitDx=0;exitDy=0;" parent="1" source="8zST_xIl3tLdwm4q-xXR-34" target="8zST_xIl3tLdwm4q-xXR-57" edge="1">
          <mxGeometry relative="1" as="geometry"/>
        </mxCell>
        <mxCell id="8zST_xIl3tLdwm4q-xXR-34" value="Twitter" style="rounded=0;whiteSpace=wrap;html=1;" parent="1" vertex="1">
          <mxGeometry x="400" y="90" width="100" height="20" as="geometry"/>
        </mxCell>
        <mxCell id="8zST_xIl3tLdwm4q-xXR-63" style="edgeStyle=orthogonalEdgeStyle;rounded=0;orthogonalLoop=1;jettySize=auto;html=1;exitX=1;exitY=0.25;exitDx=0;exitDy=0;" parent="1" source="8zST_xIl3tLdwm4q-xXR-35" target="8zST_xIl3tLdwm4q-xXR-62" edge="1">
          <mxGeometry relative="1" as="geometry"/>
        </mxCell>
        <mxCell id="8zST_xIl3tLdwm4q-xXR-35" value="Instagram" style="rounded=0;whiteSpace=wrap;html=1;" parent="1" vertex="1">
          <mxGeometry x="400" y="110" width="100" height="20" as="geometry"/>
        </mxCell>
        <mxCell id="8zST_xIl3tLdwm4q-xXR-42" style="edgeStyle=orthogonalEdgeStyle;rounded=0;orthogonalLoop=1;jettySize=auto;html=1;exitX=1;exitY=0.5;exitDx=0;exitDy=0;entryX=0;entryY=0.5;entryDx=0;entryDy=0;" parent="1" source="8zST_xIl3tLdwm4q-xXR-39" target="8zST_xIl3tLdwm4q-xXR-41" edge="1">
          <mxGeometry relative="1" as="geometry"/>
        </mxCell>
        <mxCell id="8zST_xIl3tLdwm4q-xXR-39" value="facebook.com/boreldtw" style="rounded=0;whiteSpace=wrap;html=1;" parent="1" vertex="1">
          <mxGeometry x="560" y="125" width="160" height="30" as="geometry"/>
        </mxCell>
        <mxCell id="8zST_xIl3tLdwm4q-xXR-45" style="edgeStyle=orthogonalEdgeStyle;rounded=0;orthogonalLoop=1;jettySize=auto;html=1;exitX=0.5;exitY=1;exitDx=0;exitDy=0;entryX=0.5;entryY=0;entryDx=0;entryDy=0;" parent="1" source="8zST_xIl3tLdwm4q-xXR-41" target="8zST_xIl3tLdwm4q-xXR-43" edge="1">
          <mxGeometry relative="1" as="geometry"/>
        </mxCell>
        <mxCell id="8zST_xIl3tLdwm4q-xXR-41" value="Get facebook uid (user id)" style="rounded=0;whiteSpace=wrap;html=1;" parent="1" vertex="1">
          <mxGeometry x="810" y="35" width="180" height="65" as="geometry"/>
        </mxCell>
        <mxCell id="8zST_xIl3tLdwm4q-xXR-50" style="edgeStyle=orthogonalEdgeStyle;rounded=0;orthogonalLoop=1;jettySize=auto;html=1;exitX=1;exitY=0.75;exitDx=0;exitDy=0;entryX=0;entryY=0.75;entryDx=0;entryDy=0;" parent="1" source="8zST_xIl3tLdwm4q-xXR-43" target="8zST_xIl3tLdwm4q-xXR-49" edge="1">
          <mxGeometry relative="1" as="geometry"/>
        </mxCell>
        <mxCell id="8zST_xIl3tLdwm4q-xXR-43" value="https://whopostedwhat.com" style="rounded=0;whiteSpace=wrap;html=1;" parent="1" vertex="1">
          <mxGeometry x="800" y="110" width="170" height="20" as="geometry"/>
        </mxCell>
        <mxCell id="8zST_xIl3tLdwm4q-xXR-44" value="https://lookup-id.com/" style="rounded=0;whiteSpace=wrap;html=1;" parent="1" vertex="1">
          <mxGeometry x="800" y="130" width="170" height="15" as="geometry"/>
        </mxCell>
        <mxCell id="8zST_xIl3tLdwm4q-xXR-52" style="edgeStyle=orthogonalEdgeStyle;rounded=0;orthogonalLoop=1;jettySize=auto;html=1;exitX=0.5;exitY=1;exitDx=0;exitDy=0;entryX=0.5;entryY=0;entryDx=0;entryDy=0;" parent="1" source="8zST_xIl3tLdwm4q-xXR-49" target="8zST_xIl3tLdwm4q-xXR-51" edge="1">
          <mxGeometry relative="1" as="geometry"/>
        </mxCell>
        <mxCell id="8zST_xIl3tLdwm4q-xXR-49" value="Manipulate" style="rounded=0;whiteSpace=wrap;html=1;" parent="1" vertex="1">
          <mxGeometry x="990" y="110" width="120" height="20" as="geometry"/>
        </mxCell>
        <mxCell id="8zST_xIl3tLdwm4q-xXR-56" style="edgeStyle=orthogonalEdgeStyle;rounded=0;orthogonalLoop=1;jettySize=auto;html=1;exitX=0;exitY=0.5;exitDx=0;exitDy=0;" parent="1" source="8zST_xIl3tLdwm4q-xXR-51" edge="1">
          <mxGeometry relative="1" as="geometry">
            <mxPoint x="900" y="160" as="targetPoint"/>
          </mxGeometry>
        </mxCell>
        <mxCell id="8zST_xIl3tLdwm4q-xXR-51" value="researchclinic.net" style="rounded=0;whiteSpace=wrap;html=1;" parent="1" vertex="1">
          <mxGeometry x="990" y="145" width="120" height="25" as="geometry"/>
        </mxCell>
        <mxCell id="8zST_xIl3tLdwm4q-xXR-53" value="facebook.com/507822381/photos_albums" style="rounded=0;whiteSpace=wrap;html=1;" parent="1" vertex="1">
          <mxGeometry x="760" y="170" width="210" height="30" as="geometry"/>
        </mxCell>
        <mxCell id="8zST_xIl3tLdwm4q-xXR-54" value="Example" style="text;html=1;strokeColor=none;fillColor=none;align=center;verticalAlign=middle;whiteSpace=wrap;rounded=0;" parent="1" vertex="1">
          <mxGeometry x="850" y="150" width="40" height="20" as="geometry"/>
        </mxCell>
        <mxCell id="8zST_xIl3tLdwm4q-xXR-57" value="/search-advanced" style="rounded=0;whiteSpace=wrap;html=1;" parent="1" vertex="1">
          <mxGeometry x="270" y="130" width="110" height="20" as="geometry"/>
        </mxCell>
        <mxCell id="8zST_xIl3tLdwm4q-xXR-59" value="//foller.me/user-id" style="rounded=0;whiteSpace=wrap;html=1;" parent="1" vertex="1">
          <mxGeometry x="270" y="150" width="110" height="20" as="geometry"/>
        </mxCell>
        <mxCell id="8zST_xIl3tLdwm4q-xXR-60" value="http://staringispolite.github.io/twayback-machine/" style="rounded=0;whiteSpace=wrap;html=1;" parent="1" vertex="1">
          <mxGeometry x="250" y="170" width="190" height="30" as="geometry"/>
        </mxCell>
        <mxCell id="8zST_xIl3tLdwm4q-xXR-61" value="doesfollow.com/user-id" style="rounded=0;whiteSpace=wrap;html=1;" parent="1" vertex="1">
          <mxGeometry x="250" y="200" width="160" height="30" as="geometry"/>
        </mxCell>
        <mxCell id="8zST_xIl3tLdwm4q-xXR-62" value="search instagram" style="rounded=0;whiteSpace=wrap;html=1;" parent="1" vertex="1">
          <mxGeometry x="470" y="170" width="140" height="20" as="geometry"/>
        </mxCell>
        <mxCell id="8zST_xIl3tLdwm4q-xXR-64" value="jakecreps" style="rounded=0;whiteSpace=wrap;html=1;" parent="1" vertex="1">
          <mxGeometry x="470" y="190" width="140" height="20" as="geometry"/>
        </mxCell>
        <mxCell id="8zST_xIl3tLdwm4q-xXR-67" value="search profile on Linkedin" style="rounded=0;whiteSpace=wrap;html=1;" parent="1" vertex="1">
          <mxGeometry x="400" y="230" width="130" height="30" as="geometry"/>
        </mxCell>
        <mxCell id="8zST_xIl3tLdwm4q-xXR-72" style="edgeStyle=orthogonalEdgeStyle;rounded=0;orthogonalLoop=1;jettySize=auto;html=1;exitX=0.5;exitY=1;exitDx=0;exitDy=0;entryX=0.5;entryY=0;entryDx=0;entryDy=0;" parent="1" source="8zST_xIl3tLdwm4q-xXR-69" target="8zST_xIl3tLdwm4q-xXR-71" edge="1">
          <mxGeometry relative="1" as="geometry"/>
        </mxCell>
        <mxCell id="8zST_xIl3tLdwm4q-xXR-69" value="snapchat" style="rounded=0;whiteSpace=wrap;html=1;" parent="1" vertex="1">
          <mxGeometry x="650" y="205" width="90" height="20" as="geometry"/>
        </mxCell>
        <mxCell id="8zST_xIl3tLdwm4q-xXR-71" value="map.snapchat.com" style="rounded=0;whiteSpace=wrap;html=1;" parent="1" vertex="1">
          <mxGeometry x="610" y="250" width="130" height="20" as="geometry"/>
        </mxCell>
        <mxCell id="8zST_xIl3tLdwm4q-xXR-73" value="socialbearing.com" style="rounded=0;whiteSpace=wrap;html=1;" parent="1" vertex="1">
          <mxGeometry x="250" y="230" width="130" height="30" as="geometry"/>
        </mxCell>
        <mxCell id="8zST_xIl3tLdwm4q-xXR-79" style="edgeStyle=orthogonalEdgeStyle;rounded=0;orthogonalLoop=1;jettySize=auto;html=1;exitX=1;exitY=0.5;exitDx=0;exitDy=0;entryX=0;entryY=0.5;entryDx=0;entryDy=0;" parent="1" source="8zST_xIl3tLdwm4q-xXR-75" target="8zST_xIl3tLdwm4q-xXR-77" edge="1">
          <mxGeometry relative="1" as="geometry"/>
        </mxCell>
        <mxCell id="8zST_xIl3tLdwm4q-xXR-83" style="edgeStyle=orthogonalEdgeStyle;rounded=0;orthogonalLoop=1;jettySize=auto;html=1;exitX=0.5;exitY=1;exitDx=0;exitDy=0;entryX=0.5;entryY=0;entryDx=0;entryDy=0;" parent="1" source="8zST_xIl3tLdwm4q-xXR-75" target="8zST_xIl3tLdwm4q-xXR-82" edge="1">
          <mxGeometry relative="1" as="geometry"/>
        </mxCell>
        <mxCell id="8zST_xIl3tLdwm4q-xXR-75" value="address" style="rounded=0;whiteSpace=wrap;html=1;" parent="1" vertex="1">
          <mxGeometry y="320" width="110" height="20" as="geometry"/>
        </mxCell>
        <mxCell id="8zST_xIl3tLdwm4q-xXR-89" value="" style="edgeStyle=orthogonalEdgeStyle;rounded=0;orthogonalLoop=1;jettySize=auto;html=1;entryX=0.25;entryY=1;entryDx=0;entryDy=0;" parent="1" source="8zST_xIl3tLdwm4q-xXR-76" target="8zST_xIl3tLdwm4q-xXR-30" edge="1">
          <mxGeometry relative="1" as="geometry"/>
        </mxCell>
        <mxCell id="6uzl8MLO_yuIQVatDIff-5" style="edgeStyle=orthogonalEdgeStyle;rounded=0;orthogonalLoop=1;jettySize=auto;html=1;exitX=0.5;exitY=1;exitDx=0;exitDy=0;entryX=0.5;entryY=0;entryDx=0;entryDy=0;" edge="1" parent="1" source="8zST_xIl3tLdwm4q-xXR-76" target="8zST_xIl3tLdwm4q-xXR-80">
          <mxGeometry relative="1" as="geometry"/>
        </mxCell>
        <mxCell id="8zST_xIl3tLdwm4q-xXR-76" value="username" style="rounded=0;whiteSpace=wrap;html=1;" parent="1" vertex="1">
          <mxGeometry x="320" y="320" width="110" height="20" as="geometry"/>
        </mxCell>
        <mxCell id="8zST_xIl3tLdwm4q-xXR-81" style="edgeStyle=orthogonalEdgeStyle;rounded=0;orthogonalLoop=1;jettySize=auto;html=1;exitX=1;exitY=0.5;exitDx=0;exitDy=0;entryX=0;entryY=0.5;entryDx=0;entryDy=0;" parent="1" source="8zST_xIl3tLdwm4q-xXR-77" target="8zST_xIl3tLdwm4q-xXR-76" edge="1">
          <mxGeometry relative="1" as="geometry"/>
        </mxCell>
        <mxCell id="8zST_xIl3tLdwm4q-xXR-85" style="edgeStyle=orthogonalEdgeStyle;rounded=0;orthogonalLoop=1;jettySize=auto;html=1;exitX=0.5;exitY=1;exitDx=0;exitDy=0;entryX=0.5;entryY=0;entryDx=0;entryDy=0;" parent="1" source="8zST_xIl3tLdwm4q-xXR-77" target="8zST_xIl3tLdwm4q-xXR-84" edge="1">
          <mxGeometry relative="1" as="geometry"/>
        </mxCell>
        <mxCell id="8zST_xIl3tLdwm4q-xXR-77" value="telephone #" style="rounded=0;whiteSpace=wrap;html=1;" parent="1" vertex="1">
          <mxGeometry x="160" y="320" width="110" height="20" as="geometry"/>
        </mxCell>
        <mxCell id="8zST_xIl3tLdwm4q-xXR-80" value="namechecker" style="rounded=0;whiteSpace=wrap;html=1;" parent="1" vertex="1">
          <mxGeometry x="320" y="370" width="110" height="20" as="geometry"/>
        </mxCell>
        <mxCell id="8zST_xIl3tLdwm4q-xXR-92" style="edgeStyle=orthogonalEdgeStyle;rounded=0;orthogonalLoop=1;jettySize=auto;html=1;" parent="1" source="8zST_xIl3tLdwm4q-xXR-82" target="8zST_xIl3tLdwm4q-xXR-91" edge="1">
          <mxGeometry relative="1" as="geometry"/>
        </mxCell>
        <mxCell id="8zST_xIl3tLdwm4q-xXR-82" value="familytreenow.com" style="rounded=0;whiteSpace=wrap;html=1;" parent="1" vertex="1">
          <mxGeometry y="360" width="140" height="20" as="geometry"/>
        </mxCell>
        <mxCell id="8zST_xIl3tLdwm4q-xXR-84" value="usphonebook.com/" style="rounded=0;whiteSpace=wrap;html=1;" parent="1" vertex="1">
          <mxGeometry x="160" y="360" width="130" height="20" as="geometry"/>
        </mxCell>
        <mxCell id="8zST_xIl3tLdwm4q-xXR-86" value="calleridtest.com" style="rounded=0;whiteSpace=wrap;html=1;" parent="1" vertex="1">
          <mxGeometry x="160" y="380" width="130" height="20" as="geometry"/>
        </mxCell>
        <mxCell id="8zST_xIl3tLdwm4q-xXR-87" value="peoplesearchnow.com" style="rounded=0;whiteSpace=wrap;html=1;" parent="1" vertex="1">
          <mxGeometry x="160" y="400" width="130" height="20" as="geometry"/>
        </mxCell>
        <mxCell id="8zST_xIl3tLdwm4q-xXR-91" value="fastpeoplesearch.com" style="rounded=0;whiteSpace=wrap;html=1;" parent="1" vertex="1">
          <mxGeometry y="380" width="140" height="20" as="geometry"/>
        </mxCell>
      </root>
    </mxGraphModel>
  </diagram>
</mxfile>
